<svg xmlns="http://www.w3.org/2000/svg" viewBox="0 0 480 270" width="480" height="270">
  <rect width="480" height="270" fill="#FAFAFA"/>
  <!-- top bar -->
  <rect x="0" y="0" width="480" height="44" fill="#FFFFFF" stroke="#E5E5E5" stroke-width="1"/>
  <rect x="16" y="14" width="80" height="16" rx="2" fill="#1E40FF" opacity="0.12"/>
  <rect x="24" y="19" width="64" height="6" rx="2" fill="#1E40FF"/>
  <rect x="200" y="16" width="80" height="12" rx="6" fill="#F0F0F0"/>
  <rect x="208" y="19" width="48" height="6" rx="2" fill="#999999"/>
  <rect x="380" y="14" width="16" height="16" rx="3" fill="#E5E5E5"/>
  <rect x="400" y="14" width="16" height="16" rx="3" fill="#E5E5E5"/>
  <rect x="420" y="14" width="16" height="16" rx="3" fill="#E5E5E5"/>
  <rect x="444" y="14" width="20" height="16" rx="3" fill="#1E40FF"/>
  <!-- component grid -->
  <rect x="16" y="60" width="136" height="90" rx="6" fill="#FFFFFF" stroke="#E5E5E5" stroke-width="1"/>
  <rect x="28" y="72" width="32" height="32" rx="4" fill="#1E40FF" opacity="0.1"/>
  <rect x="36" y="80" width="16" height="16" rx="2" fill="#1E40FF"/>
  <rect x="28" y="112" width="80" height="8" rx="2" fill="#111111"/>
  <rect x="28" y="124" width="56" height="6" rx="2" fill="#999999"/>
  <rect x="160" y="60" width="136" height="90" rx="6" fill="#FFFFFF" stroke="#1E40FF" stroke-width="1.5"/>
  <rect x="172" y="72" width="32" height="32" rx="16" fill="#1E40FF" opacity="0.1"/>
  <rect x="180" y="80" width="16" height="16" rx="8" fill="#1E40FF"/>
  <rect x="172" y="112" width="72" height="8" rx="2" fill="#111111"/>
  <rect x="172" y="124" width="48" height="6" rx="2" fill="#999999"/>
  <!-- badge on selected -->
  <rect x="272" y="56" width="32" height="16" rx="8" fill="#1E40FF"/>
  <rect x="280" y="60" width="16" height="8" rx="2" fill="#FFFFFF"/>
  <rect x="304" y="60" width="136" height="90" rx="6" fill="#FFFFFF" stroke="#E5E5E5" stroke-width="1"/>
  <rect x="316" y="72" width="112" height="8" rx="2" fill="#E5E5E5"/>
  <rect x="316" y="86" width="88" height="6" rx="2" fill="#E5E5E5"/>
  <rect x="316" y="98" width="96" height="6" rx="2" fill="#E5E5E5"/>
  <rect x="316" y="120" width="40" height="16" rx="3" fill="#1E40FF"/>
  <rect x="362" y="120" width="40" height="16" rx="3" fill="#F0F0F0"/>
  <!-- props panel bottom -->
  <rect x="16" y="164" width="448" height="90" rx="6" fill="#FFFFFF" stroke="#E5E5E5" stroke-width="1"/>
  <rect x="28" y="176" width="56" height="8" rx="2" fill="#111111"/>
  <rect x="28" y="194" width="40" height="6" rx="2" fill="#999999"/>
  <rect x="80" y="192" width="80" height="10" rx="2" fill="#F0F0F0"/>
  <rect x="88" y="195" width="64" height="4" rx="1" fill="#1E40FF" opacity="0.4"/>
  <rect x="28" y="214" width="40" height="6" rx="2" fill="#999999"/>
  <rect x="80" y="212" width="48" height="10" rx="2" fill="#F0F0F0"/>
  <rect x="88" y="215" width="32" height="4" rx="1" fill="#999999"/>
  <rect x="180" y="176" width="1" height="72" fill="#E5E5E5"/>
  <rect x="196" y="176" width="56" height="8" rx="2" fill="#111111"/>
  <rect x="196" y="194" width="32" height="6" rx="2" fill="#999999"/>
  <rect x="248" y="192" width="16" height="10" rx="5" fill="#1E40FF"/>
</svg>
